<svg width="22" height="22" viewBox="0 0 22 22" fill="none" xmlns="http://www.w3.org/2000/svg">
<path fill-rule="evenodd" clip-rule="evenodd" d="M11 0C11.4138 0 11.7848 0.254829 11.9333 0.641021L13.9453 5.87211C14.2457 6.65315 14.3401 6.87822 14.4692 7.05981C14.5988 7.24202 14.758 7.40122 14.9402 7.53078C15.1218 7.6599 15.3469 7.7543 16.1279 8.0547L21.359 10.0667C21.7452 10.2152 22 10.5862 22 11C22 11.4138 21.7452 11.7848 21.359 11.9333L16.1279 13.9453C15.3469 14.2457 15.1218 14.3401 14.9402 14.4692C14.758 14.5988 14.5988 14.758 14.4692 14.9402C14.3401 15.1218 14.2457 15.3468 13.9453 16.1279L11.9333 21.359C11.7848 21.7452 11.4138 22 11 22C10.5862 22 10.2152 21.7452 10.0667 21.359L8.0547 16.1279C7.7543 15.3469 7.6599 15.1218 7.53078 14.9402C7.40122 14.758 7.24202 14.5988 7.05981 14.4692C6.87822 14.3401 6.65315 14.2457 5.87211 13.9453L0.641021 11.9333C0.254829 11.7848 0 11.4138 0 11C5.96046e-08 10.5862 0.254829 10.2152 0.641021 10.0667L5.8721 8.0547C6.65315 7.7543 6.87822 7.6599 7.05981 7.53078C7.24202 7.40122 7.40122 7.24202 7.53078 7.05981C7.6599 6.87822 7.7543 6.65315 8.0547 5.87211L10.0667 0.641021C10.2152 0.254829 10.5862 5.96046e-08 11 0ZM11 3.78568L9.92139 6.59006C9.90813 6.62454 9.89506 6.65856 9.88216 6.69215C9.63859 7.32641 9.45459 7.80552 9.16073 8.2188C8.90161 8.58322 8.58322 8.90161 8.2188 9.16073C7.80552 9.45459 7.32641 9.63859 6.69215 9.88216C6.65856 9.89506 6.62454 9.90813 6.59006 9.92139L3.78568 11L6.59007 12.0786C6.62454 12.0919 6.65856 12.1049 6.69215 12.1178C7.32641 12.3614 7.80553 12.5454 8.2188 12.8393C8.58322 13.0984 8.90161 13.4168 9.16073 13.7812C9.45459 14.1945 9.63859 14.6736 9.88216 15.3078C9.89506 15.3414 9.90813 15.3755 9.92139 15.4099L11 18.2143L12.0786 15.4099C12.0919 15.3755 12.1049 15.3414 12.1178 15.3078C12.3614 14.6736 12.5454 14.1945 12.8393 13.7812C13.0984 13.4168 13.4168 13.0984 13.7812 12.8393C14.1945 12.5454 14.6736 12.3614 15.3079 12.1178C15.3414 12.1049 15.3755 12.0919 15.4099 12.0786L18.2143 11L15.4099 9.92139C15.3755 9.90813 15.3414 9.89507 15.3079 9.88217C14.6736 9.63859 14.1945 9.45459 13.7812 9.16073C13.4168 8.90161 13.0984 8.58322 12.8393 8.2188C12.5454 7.80553 12.3614 7.32641 12.1178 6.69215C12.1049 6.65856 12.0919 6.62454 12.0786 6.59006L11 3.78568Z" fill="black"/>
</svg>
